<svg width="178" height="80" viewBox="0 0 178 80" fill="none" xmlns="http://www.w3.org/2000/svg">
<path d="M0 38C0 17.0132 17.0132 0 38 0H140C160.987 0 178 17.0132 178 38V42C178 62.9868 160.987 80 140 80H38C17.0132 80 0 62.9868 0 42V38Z" fill="#D9D9D9"/>
<path d="M36.896 16.576L33.312 19.904C32.384 18.656 31.232 17.568 29.728 17.568C28.896 17.568 28.288 18.144 28.288 18.784C28.288 20.32 30.304 21.248 31.808 22.272C34.688 24.256 37.44 25.952 37.44 29.728C37.44 33.856 34.112 36.64 29.44 36.64C25.44 36.64 22.528 34.592 20.896 31.84L25.536 29.12C26.368 30.72 27.744 31.968 29.504 31.968C30.72 31.968 31.552 31.2 31.552 30.24C31.552 28.832 29.92 27.872 28 26.624C25.504 24.992 22.528 22.976 22.528 19.488C22.528 16 25.696 12.96 29.6 12.96C33.248 12.96 35.68 15.168 36.896 16.576Z" fill="black"/>
<path d="M40.6768 11.36H46.3408C46.3408 11.968 46.3088 14.08 46.3088 15.2V32.16C46.3088 33.28 46.3408 35.392 46.3408 36H40.6768C40.6768 35.392 40.7088 33.28 40.7088 32.16V15.2C40.7088 14.08 40.6768 11.968 40.6768 11.36Z" fill="black"/>
<path d="M58.7757 20.32C64.1517 20.32 67.9277 23.968 67.9277 28.48C67.9277 32.992 64.1517 36.64 58.7757 36.64C53.3997 36.64 49.6237 32.992 49.6237 28.48C49.6237 23.968 53.3997 20.32 58.7757 20.32ZM58.7757 24.8C56.7277 24.8 55.2238 26.464 55.2238 28.48C55.2238 30.496 56.7277 32.16 58.7757 32.16C60.8237 32.16 62.3278 30.496 62.3278 28.48C62.3278 26.464 60.8237 24.8 58.7757 24.8Z" fill="black"/>
<path d="M76.9307 43.04H71.2667C71.2667 42.368 71.2988 40.128 71.2988 38.944V23.328C72.4508 22.176 75.3948 20.32 79.6828 20.32C85.6668 20.32 89.1227 23.872 89.1227 28.704C89.1227 33.76 85.7308 36.64 81.5068 36.64C79.5228 36.64 77.6348 35.84 76.8668 34.976L76.7388 35.04C76.8348 35.264 76.8988 35.904 76.8988 36.512V38.944C76.8988 40.128 76.9307 42.368 76.9307 43.04ZM76.8988 26.24V30.24C77.4748 31.2 78.4988 31.968 80.0348 31.968C82.0188 31.968 83.3627 30.4 83.3627 28.448C83.3627 26.464 81.9227 24.992 79.8747 24.992C78.5307 24.992 77.4748 25.632 76.8988 26.24Z" fill="black"/>
<path d="M108.387 29.408H97.4433C97.5393 31.456 98.4992 32.672 100.323 32.672C102.147 32.672 102.915 31.424 103.203 30.656L107.811 33.248C106.915 34.848 104.707 36.64 100.643 36.64C94.9472 36.64 92.0673 32.864 92.0673 28.64C92.0673 23.616 95.5553 20.32 100.195 20.32C105.411 20.32 108.451 23.968 108.451 28.448C108.451 28.96 108.419 29.248 108.387 29.408ZM100.323 23.904C99.0752 23.904 97.8593 24.672 97.6673 26.272H103.075C103.107 25.28 102.243 23.904 100.323 23.904Z" fill="black"/>
<path d="M112.463 13.024H113.038L125.519 22.944C126.543 23.776 126.671 23.936 127.311 24.832L127.438 24.8C127.374 24.48 127.215 23.648 127.215 22.432V17.44C127.215 16.32 127.183 14.208 127.183 13.6H133.391C133.391 14.208 133.359 16.32 133.359 17.44V36.576H132.783L120.302 26.304C119.278 25.472 119.15 25.312 118.51 24.416L118.382 24.448C118.446 24.768 118.606 25.6 118.606 26.816V32.16C118.606 33.28 118.639 35.392 118.639 36H112.43C112.43 35.392 112.463 33.28 112.463 32.16V13.024Z" fill="black"/>
<path d="M138.15 13.024H138.726L151.206 22.944C152.23 23.776 152.358 23.936 152.998 24.832L153.126 24.8C153.062 24.48 152.902 23.648 152.902 22.432V17.44C152.902 16.32 152.87 14.208 152.87 13.6H159.078C159.078 14.208 159.046 16.32 159.046 17.44V36.576H158.47L145.99 26.304C144.966 25.472 144.838 25.312 144.198 24.416L144.07 24.448C144.134 24.768 144.294 25.6 144.294 26.816V32.16C144.294 33.28 144.326 35.392 144.326 36H138.118C138.118 35.392 138.15 33.28 138.15 32.16V13.024Z" fill="black"/>
<path d="M36.192 45.568V50.88C35.584 50.88 33.472 50.848 32.352 50.848H31.648V64.16C31.648 65.28 31.68 67.392 31.68 68H25.472C25.472 67.392 25.504 65.28 25.504 64.16V50.848H24.8C23.68 50.848 21.568 50.88 20.96 50.88V45.568C21.568 45.568 23.68 45.6 24.8 45.6H32.352C33.472 45.6 35.584 45.568 36.192 45.568Z" fill="black"/>
<path d="M39.5563 68V45.6H47.8442C48.9642 45.6 51.0763 45.568 51.6842 45.568V50.88C51.0763 50.88 48.9642 50.848 47.8442 50.848H45.2202V54.176H46.6283C47.7483 54.176 49.8603 54.144 50.4683 54.144V59.456C49.8603 59.456 47.7483 59.424 46.6283 59.424H45.2202V62.752H48.3563C49.4763 62.752 51.5883 62.72 52.1963 62.72V68.032C51.5883 68.032 49.4763 68 48.3563 68H39.5563Z" fill="black"/>
<path d="M73.2388 60.768L77.2067 64.896C74.9347 67.264 71.3828 68.64 67.6068 68.64C59.9588 68.64 55.3187 63.264 55.3187 56.672C55.3187 50.08 60.1187 44.96 67.5427 44.96C71.7027 44.96 74.5188 46.4 76.6308 48.576L72.7907 52.544C71.2227 50.976 69.5587 50.208 67.5427 50.208C64.1827 50.208 61.4627 52.576 61.4627 56.672C61.4627 60.704 64.3428 63.264 67.6068 63.264C70.2308 63.264 71.7028 62.208 73.2388 60.768Z" fill="black"/>
<path d="M101.1 49.44V64.16C101.1 65.28 101.132 67.392 101.132 68H94.9243C94.9243 67.392 94.9563 65.28 94.9563 64.16V59.04H86.7002V64.16C86.7002 65.28 86.7323 67.392 86.7323 68H80.5242C80.5242 67.392 80.5563 65.28 80.5563 64.16V49.44C80.5563 48.32 80.5242 46.208 80.5242 45.6H86.7323C86.7323 46.208 86.7002 48.32 86.7002 49.44V54.24H94.9563V49.44C94.9563 48.32 94.9243 46.208 94.9243 45.6H101.132C101.132 46.208 101.1 48.32 101.1 49.44Z" fill="black"/>
</svg>
